<?xml version="1.0" standalone="no"?><!DOCTYPE svg PUBLIC "-//W3C//DTD SVG 1.1//EN" "http://www.w3.org/Graphics/SVG/1.1/DTD/svg11.dtd"><svg class="icon" width="200px" height="200.00px" viewBox="0 0 1024 1024" version="1.1" xmlns="http://www.w3.org/2000/svg"><path fill="#333333" d="M635.119 379.905c0 23.282-18.86 42.16-42.135 42.19h-304.95c-23.2-0.059-41.983-18.88-41.983-42.087v-224c0-23.346 18.841-42.341 41.983-42.341h305.05c23.245 0 42.138 18.893 42.138 42.342v223.845h-0.102zM994.03 218.831s0.512-13.824-15.565-28.365c-31.539-28.518-85.043-75.878-101.376-92.365-9.165-9.267-30.31-14.643-44.39 0.205-13.414 14.182-7.578 32.768 2.355 42.24 14.08 13.517 45.926 40.192 64.051 60.21-15.104 18.638-39.987 38.35-55.552 55.603-2.048 2.202-1.894 4.71-1.894 5.837 0.102 9.83 0.461 16.742 0.358 20.838-0.154 3.686 4.096 4.915 5.99 4.915h78.848c5.222 0 6.554 5.376 6.554 5.376v509.746c0 28.518-15.36 37.427-31.18 37.427-15.77 0-32.615-9.01-32.615-37.376v-416.92c0-37.735-4.147-54.939-46.592-57.19-10.445-0.615-52.122-0.155-74.802 0V63.385C748.22 28.365 719.958 0 685.039 0H197.718c-34.867 0-63.13 28.365-63.13 63.386v851.966H98.44c-14.315 0.03-25.908 11.64-25.908 25.958v38.605c0 14.438 11.622 27.341 25.907 27.341h684.644c14.336 0 25.958-12.902 25.958-27.34V941.361c0-14.347-11.616-25.98-25.956-26.01h-34.971V390.4h43.468c15.514 0 16.896 15.462 16.896 15.462v401.253c0 102.4 84.275 103.322 93.696 103.322 12.595 0 91.7 0 91.7-102.093V218.828h0.153z" /></svg>