<?xml version="1.0" standalone="no"?><!DOCTYPE svg PUBLIC "-//W3C//DTD SVG 1.1//EN" "http://www.w3.org/Graphics/SVG/1.1/DTD/svg11.dtd"><svg class="icon" width="200px" height="196.55px" viewBox="0 0 1042 1024" version="1.1" xmlns="http://www.w3.org/2000/svg"><path fill="#333333" d="M865.849 530.963V175.407a37.926 37.926 0 0 0-36.978-37.926H711.87V61.63a63.905 63.905 0 0 0-17.826-42.667A60.681 60.681 0 0 0 650.81 0a61.44 61.44 0 0 0-60.682 62.388v75.852H711.87v75.852a61.63 61.63 0 0 1-60.871 62.198 58.785 58.785 0 0 1-37.926-13.653 62.578 62.578 0 0 1-23.325-48.545V138.24H275.721v75.852a62.388 62.388 0 0 1-22.945 48.355 59.733 59.733 0 0 1-37.926 13.843 61.44 61.44 0 0 1-60.87-62.198V138.24H275.72V62.388a63.716 63.716 0 0 0-17.635-43.425A60.681 60.681 0 0 0 214.85 0a61.63 61.63 0 0 0-60.87 62.388v75.852H37.925A37.926 37.926 0 0 0 0 175.407v691.01a37.926 37.926 0 0 0 37.926 37.927h363.9V707.508h-199.87a49.114 49.114 0 0 1 0-98.228h209.73a125.535 125.535 0 0 1 115.295-78.317z m-663.704-59.544a49.304 49.304 0 0 1 0-98.418h461.559a49.304 49.304 0 0 1 0 98.418zM1041.256 705.233a16.877 16.877 0 0 0-13.084-24.083l-34.133-3.603a15.74 15.74 0 0 0-17.446 14.601v1.328a8620.426 8620.426 0 0 1-37.926-82.3 25.41 25.41 0 0 0-22.946-14.98H581.594a25.41 25.41 0 0 0-22.945 14.98l-37.926 82.49v-1.518a15.74 15.74 0 0 0-17.446-14.601l-34.133 3.603a17.067 17.067 0 0 0-14.033 24.083 73.956 73.956 0 0 0 41.908 37.926c-14.032 30.15-25.79 54.802-28.065 58.785a51.959 51.959 0 0 0-5.689 18.963v85.523a75.852 75.852 0 0 0 26.359 56.889v37.925A21.807 21.807 0 0 0 510.862 1024h34.134a21.618 21.618 0 0 0 21.428-21.807v-21.239h363.71v21.239A21.807 21.807 0 0 0 951.56 1024h34.513a21.618 21.618 0 0 0 21.428-21.807v-37.926a75.852 75.852 0 0 0 26.548-56.89V825.08c0-1.138-1.137-6.638-1.137-6.638 0-3.602-15.55-37.925-33.375-75.851a72.439 72.439 0 0 0 41.718-37.357z m-459.472-72.06a35.271 35.271 0 0 1 28.634-10.998h275.721a35.271 35.271 0 0 1 28.634 10.998l45.322 92.73H536.462z m12.515 243.106H542.72a36.03 36.03 0 0 1-39.064-35.082v-10.43a22.566 22.566 0 0 1 27.307-22.376 93.487 93.487 0 0 1 73.007 55.182 9.86 9.86 0 0 1-9.67 12.706z m281.031 15.17a33.754 33.754 0 0 1-33.374 34.133H654.6a33.754 33.754 0 0 1-33.374-34.323v-3.603H875.33z m117.76-50.252a36.03 36.03 0 0 1-39.253 35.082h-51.58a10.05 10.05 0 0 1-9.48-12.706 93.487 93.487 0 0 1 73.007-55.182 22.566 22.566 0 0 1 27.306 22.376z" /></svg>