<?xml version="1.0" standalone="no"?><!DOCTYPE svg PUBLIC "-//W3C//DTD SVG 1.1//EN" "http://www.w3.org/Graphics/SVG/1.1/DTD/svg11.dtd"><svg class="icon" width="200px" height="189.63px" viewBox="0 0 1080 1024" version="1.1" xmlns="http://www.w3.org/2000/svg"><path fill="#333333" d="M910.208667 397.874172H786.079485V198.597091H124.128182v283.699844h420.004847l-17.976736 27.3066-0.169998 0.795988-69.061988 116.507294c-3.469949 6.8259-1.706975 17.06575 3.469949 22.185675l75.0919 56.319175c0 11.946825-1.706975 22.186675-1.706975 34.1335 0 11.945825 1.706975 22.185675 1.706975 34.1325l-73.328926 56.319175c-6.996898 5.119925-8.703873 13.6528-3.469949 22.186675l32.995517 55.636185H234.378567v56.774168c0 31.174543-24.802637 56.717169-55.181192 56.717169h-55.181192c-30.321556 0-55.125193-25.542626-55.125192-56.717169V862.423367C35.839475 831.133825 0 817.084031 0 765.997779V224.309714C0 25.712623 212.362889 0 455.104333 0c242.741444 0 455.104333 25.713623 455.104334 224.309714V397.874172zM206.84497 808.494157c46.932313 0 82.771788-36.86346 82.771788-85.104754s-35.839475-85.104753-82.771788-85.104753c-46.875313 0-82.714788 36.86346-82.714788 85.104753s35.839475 85.104753 82.714788 85.104754zM1012.437169 767.98875c1.478978-8.532875 1.478978-18.488729 1.478979-28.443583s-1.479978-18.489729-1.479979-28.444584l61.099105-46.932312c5.801915-4.266937 7.280893-11.377833 2.899958-18.489729l-58.139148-98.130563c-2.843958-5.689917-11.60483-8.533875-17.464745-5.689916l-72.702935 28.444583a211.736898 211.736898 0 0 0-49.492275-28.443583l-10.125851-75.376896a15.587772 15.587772 0 0 0-14.563787-11.377834H737.553196c-7.223894 0-13.083808 5.688917-14.505788 11.377834l-11.661829 75.376896a246.325392 246.325392 0 0 0-49.493275 28.443583l-72.702935-28.443583c-7.281893-2.844958-14.562787 0-17.464744 5.688916l-58.253147 98.131563c-2.843958 5.688917-1.421979 14.221792 2.957957 18.488729l62.577083 46.932312c0 9.955854-1.478978 18.488729-1.478978 28.444584s1.421979 18.487729 1.421979 28.443583l-61.097105 46.932313c-5.802915 4.266937-7.224894 11.377833-2.844958 18.489729l58.139148 98.131562c2.901957 5.687917 11.662829 8.532875 17.464744 5.687917l72.702935-28.443583c14.563787 11.377833 32.028531 21.332688 49.493275 28.443583l11.60483 75.376896c1.479978 7.110896 7.281893 11.377833 14.563787 11.377833H855.36747c7.224894 0 13.084808-5.688917 14.506788-11.377833l11.661829-75.376896c17.464744-7.109896 33.44951-17.06575 49.493275-28.443583l72.702935 28.443583c7.280893 2.844958 14.505788 0 17.463744-5.687917l58.139148-98.132562a17.123749 17.123749 0 0 0-2.843958-18.488729L1012.437169 767.98875z m-216.743825 71.109959c-56.717169 0-101.829508-44.088354-101.829508-99.553542S738.976175 639.990625 795.692344 639.990625c56.775168 0 101.830508 44.088354 101.830509 99.554542S852.467513 839.097709 795.693344 839.097709z" /></svg>