<?xml version="1.0" standalone="no"?><!DOCTYPE svg PUBLIC "-//W3C//DTD SVG 1.1//EN" "http://www.w3.org/Graphics/SVG/1.1/DTD/svg11.dtd"><svg class="icon" width="200px" height="175.04px" viewBox="0 0 1170 1024" version="1.1" xmlns="http://www.w3.org/2000/svg"><path fill="#333333" d="M848.42 894.106c20.252 0 36.823 16.53 36.823 36.745 0 20.207-16.57 36.738-36.83 36.738H223.608c-20.254 0-36.83-16.53-36.83-36.738s16.576-36.745 36.83-36.745z m9.875-552.319c137.405-0.006 248.696 111.904 248.696 248.697 0 137.405-111.291 248.696-248.696 248.696-137.412 0-248.697-111.291-248.697-248.696 0-137.412 111.292-248.703 248.697-248.703zM899.975 55.7c60.76 0 110.476 49.606 110.476 110.229v90.022c0 20.207-16.57 36.738-36.83 36.738-20.253 0-36.823-16.53-36.823-36.738v-90.022c0-20.208-16.57-36.745-36.83-36.745H174.503c-20.253 0-36.83 16.537-36.83 36.745v514.113c0 20.208 16.577 36.739 36.83 36.739H577.75c20.26 0 36.83 16.538 36.83 36.745 0 20.208-16.57 36.745-36.83 36.745H174.51c-60.778 0-110.489-49.606-110.489-110.229v-514.12c0-60.616 49.717-110.222 110.477-110.222zM858.47 402.736c-102.59 0-186.523 83.94-186.523 186.529 0 102.582 83.934 186.522 186.523 186.522 103.208 0 186.522-83.94 186.522-186.522 0-102.59-83.933-186.53-186.522-186.53z m40.97 50.597c15.096 0 24.326 16.544 16.387 29.36l-51.184 82.603h51.314c14.778 0 23.923 15.86 16.883 28.532l-0.547 0.919L849.71 726.48c-12.47 19.881-42.957 4.413-34.223-17.366l35.657-88.868h-50.8c-13.33 0-22.508-13.128-18.225-25.494l0.404-1.056 52.853-128.435a19.269 19.269 0 0 1 17.821-11.93zM370.848 337.922c17.17 0 30.664 13.408 30.664 30.48V607.96c0 17.059-13.494 30.474-30.67 30.474-17.17 0-30.664-13.415-30.664-30.48V368.395c0-17.066 13.494-30.474 30.664-30.474z m141.062-95.693c17.17 0 30.663 13.402 30.663 30.474v335.25c0 17.066-13.493 30.481-30.663 30.481-17.176 0-30.67-13.415-30.67-30.48v-335.25c0-17.073 13.494-30.482 30.67-30.482z m-279.06 200.53c17.17 0 30.663 13.41 30.663 30.475v132.894c0 17.066-13.493 30.474-30.67 30.474-17.17 0-30.663-13.408-30.663-30.474V473.241c0-17.066 13.494-30.475 30.663-30.475z" /></svg>