<?xml version="1.0" standalone="no"?><!DOCTYPE svg PUBLIC "-//W3C//DTD SVG 1.1//EN" "http://www.w3.org/Graphics/SVG/1.1/DTD/svg11.dtd"><svg class="icon" width="200px" height="200.00px" viewBox="0 0 1024 1024" version="1.1" xmlns="http://www.w3.org/2000/svg"><path fill="#333333" d="M767.744 890.283a106.581 106.581 0 1 1 0-213.163 106.581 106.581 0 0 1 0 213.163z m-550.741 0a106.581 106.581 0 1 1 0-213.163 106.581 106.581 0 0 1 0 213.163zM30.293 403.2l87.894-222.464c17.92-25.941 30.122-46.933 59.05-46.933H314.88c0-26.966 17.579-48.043 39.424-48.128h629.504c21.675 0 39.339 21.162 39.339 46.933v600.49c0 25.857-17.664 46.934-39.339 46.934h-78.507c-9.557-80.81-67.413-143.445-137.898-143.445-70.4 0-128.256 62.634-137.899 143.616H354.56c-9.728-81.067-67.584-143.616-137.899-143.616-70.57 0-128.341 62.634-138.069 143.616H39.595C17.835 780.117 0.17 758.955 0.17 733.099V498.176c0-36.779 30.122-94.976 30.122-94.976z m268.8-175.53H179.456c-9.728 0-15.19 11.093-15.19 11.093L81.409 458.24c-7.424 12.8-11.605 27.563-15.36 39.936h233.13V227.669z m283.99 298.58v-320a35.584 35.584 0 1 0-71.083 0v355.5c0 19.626 15.957 35.583 35.584 35.583h355.499a35.584 35.584 0 1 0 0-71.082h-320z m106.666-248.917a35.584 35.584 0 0 0-35.498 35.584v142.166a35.584 35.584 0 0 0 71.082 0V312.917a35.584 35.584 0 0 0-35.584-35.584z m167.424-60.672a35.584 35.584 0 0 0-60.757 25.088v213.334a35.584 35.584 0 0 0 71.168 0V241.749a35.584 35.584 0 0 0-10.41-25.088z" /></svg>