<?xml version="1.0" standalone="no"?><!DOCTYPE svg PUBLIC "-//W3C//DTD SVG 1.1//EN" "http://www.w3.org/Graphics/SVG/1.1/DTD/svg11.dtd"><svg class="icon" width="200px" height="200.00px" viewBox="0 0 1024 1024" version="1.1" xmlns="http://www.w3.org/2000/svg"><path fill="#333333" d="M975.36 871.424l-4.096-11.264c-2.048-6.144-8.704-11.264-14.848-11.264h-13.312c-8.192-23.04-16.896-44.032-19.456-50.176-5.12-11.776-21.504-14.336-30.72-16.896 0 0-14.848-4.608-65.536-4.608-50.176 0-65.536 4.608-65.536 4.608-10.752 3.584-25.088 6.144-31.232 17.408-2.048 4.608-10.752 25.6-19.456 49.664h-12.8c-6.144 0-12.8 5.12-14.848 11.264l-3.584 11.264c-2.048 6.144 1.024 13.312 7.168 13.312h12.8c-3.584 10.24-5.632 14.848-5.632 14.848-1.024 1.536-1.536 9.216-1.536 11.264v83.968c0 6.144 5.12 11.264 11.264 11.264h31.232c6.144 0 11.264-5.12 11.264-11.264v-15.872H908.8v15.872c0 6.144 5.12 11.264 11.264 11.264h31.232c6.144 0 11.264-5.12 11.264-11.264v-83.968c0-2.048-0.512-9.728-1.536-11.264 0 0-2.048-4.608-6.144-14.848h12.8c6.656 0 9.728-7.168 7.68-13.312z m-213.504 67.584h-14.848c-13.312 0-26.624-2.048-26.624-11.264V916.48c0-10.752 5.632-11.264 11.776-11.264s17.92 5.632 26.112 9.216c8.704 4.096 18.432 7.68 18.432 14.848-0.512 6.656-3.584 9.728-14.848 9.728z m-31.232-77.824c7.68-31.232 16.384-43.008 18.432-48.128 1.536-3.584 3.072-14.848 78.848-14.848 76.288 0 77.824 12.8 77.824 12.8 2.048 6.656 11.776 20.992 18.944 49.664 0 0-32.256 10.752-97.28 10.752-64 0-96.768-10.24-96.768-10.24z m178.688 77.824h-14.848c-11.264 0-14.848-3.072-14.848-9.216 0-7.168 9.728-10.752 18.432-14.848 7.68-4.096 19.968-9.216 26.112-9.216 6.144 0 11.776 0.512 11.776 11.264v11.264c0 8.704-13.312 10.752-26.624 10.752z m-212.48-109.056c6.656-18.432 13.312-34.816 15.872-39.936 8.192-16.384 25.088-20.992 35.84-24.576 2.048-0.512 3.584-1.024 5.12-1.536 3.584-1.024 20.992-5.632 71.168-5.632h1.024c0-0.512 0-0.512-0.512-1.024h12.8c6.144 0 9.216-7.168 7.168-13.312l-4.096-11.264c-2.048-6.144-8.704-11.264-14.848-11.264H814.08c-8.192-23.04-16.384-44.032-19.456-50.176-5.12-11.776-21.504-14.336-30.208-16.896 0 0-14.848-4.608-65.536-4.608-50.176 0-65.536 4.608-65.536 4.608-10.24 3.584-25.088 6.144-31.232 17.408-2.048 4.608-10.752 25.6-18.944 49.664h-12.8c-6.144 0-12.8 5.12-14.848 11.264l-4.096 11.264c-2.048 6.144 1.024 13.312 7.168 13.312h12.8c-3.584 10.24-5.632 14.848-5.632 14.848-1.024 1.536-1.536 9.216-1.536 11.264v83.968c0 6.144 5.12 11.264 11.264 11.264h31.232c6.144 0 11.264-5.12 11.264-11.264v-15.872H665.6c5.12-12.288 17.92-20.992 31.232-21.504z m-64-18.432h-14.848c-13.312 0-26.624-2.048-26.624-11.264v-11.264c0-10.752 5.632-11.264 11.776-11.264s17.92 5.632 26.112 9.216c8.704 4.096 18.432 7.68 18.432 14.848-0.512 6.656-3.584 9.728-14.848 9.728zM601.6 733.696c7.68-31.232 16.384-43.008 18.432-48.128 1.536-3.584 3.072-14.848 78.848-14.848 76.288 0 77.824 12.8 77.824 12.8 2.048 6.656 11.776 20.992 18.944 49.664 0 0-32.256 10.752-97.28 10.752-64.512 0-96.768-10.24-96.768-10.24z m150.528-120.32c1.536-3.584 3.072-14.848 78.848-14.848 76.288 0 77.824 12.8 77.824 12.8 2.048 6.656 11.776 20.992 18.944 49.664 0 0-32.256 10.752-97.28 10.752h-10.752c4.096 10.24 8.192 20.992 12.8 31.744h0.512c13.824 0 27.648 9.728 32.256 23.552l4.096 11.264c2.56 7.168 2.048 14.848-1.024 21.504 22.016 1.536 31.744 3.584 33.792 4.096l3.072 1.024c11.264 3.072 30.208 7.68 38.4 26.112 1.024 2.56 3.584 8.192 6.656 15.872h4.608c6.144 0 11.264-5.12 11.264-11.264V711.68c0-2.048-0.512-9.728-1.536-11.264 0 0-2.048-4.608-6.144-14.848h12.8c6.144 0 9.216-7.168 7.168-13.312l-4.096-11.264c-2.048-6.144-8.704-11.264-14.848-11.264h-13.312c-8.192-23.04-16.896-44.032-19.456-50.176-5.12-11.776-21.504-14.336-30.72-16.896 0 0-14.848-4.608-65.536-4.608-50.176 0-65.536 4.608-65.536 4.608-10.752 3.584-25.088 6.144-31.232 17.408-1.536 3.584-7.168 20.992-13.312 37.376 8.192 0 14.848 0.512 20.992 1.024 5.632-11.264 9.216-22.016 10.752-25.088zM939.008 716.8v11.264c0 9.216-13.312 11.264-26.624 11.264h-14.848c-11.264 0-14.848-3.072-14.848-9.216 0-7.168 9.728-10.24 18.432-14.848 7.68-4.096 19.968-9.216 26.112-9.216 5.632-0.512 11.776 0 11.776 10.752z m-761.344-99.328l238.08-77.312V437.248l-238.08 82.432z m0 133.632l238.08-51.2V596.992l-238.08 61.44z m0 139.264l238.08-31.232V756.224l-238.08 36.352z m0 133.632l238.08-5.12V915.968l-238.08 10.24zM582.144 1024C517.12 968.704 476.16 886.272 476.16 794.624c0-118.784 68.608-221.184 168.448-270.336v-163.84L524.8 288.256l-134.144 46.592v-98.304L715.264 92.672v407.04c19.968-4.096 40.448-6.656 61.952-6.656 45.056 0 87.552 9.728 125.952 27.648V82.432L779.264 0 329.728 200.704V355.84l-248.32 86.528v519.68h-25.6V1024h80.896V478.72l329.728-108.032V1024h115.712z" /></svg>