<?xml version="1.0" standalone="no"?><!DOCTYPE svg PUBLIC "-//W3C//DTD SVG 1.1//EN" "http://www.w3.org/Graphics/SVG/1.1/DTD/svg11.dtd"><svg class="icon" width="200px" height="200.00px" viewBox="0 0 1024 1024" version="1.1" xmlns="http://www.w3.org/2000/svg"><path fill="#333333" d="M633.439629 897.152074a15.743991 15.743991 0 0 1-16.095991-15.455991v-218.079872c0-8.543995 7.199996-15.455991 16.095991-15.455991h51.03997c8.926995 0 16.126991 6.911996 16.126991 15.455991v218.079872a15.775991 15.775991 0 0 1-16.127991 15.455991h-51.03997z m231.070864-518.623696c-186.303891 0-337.310802 144.831915-337.310802 323.423811 0 168.511901 134.399921 306.84782 306.014821 321.983811H0V919.680061h107.807937V88.640548a87.199949 87.199949 0 0 1 26.847984-62.686963A92.959946 92.959946 0 0 1 199.423883 0.0006h366.463785c24.319986 0 47.647972 9.343995 64.767962 25.951985A87.359949 87.359949 0 0 1 657.501615 88.640548v177.375896h274.815839a93.439945 93.439945 0 0 1 64.799962 25.951985c17.18399 16.70399 26.847984 39.231977 26.815984 62.687963v62.270964a347.039797 347.039797 0 0 0-159.423907-38.399978zM520.063695 112.513534h-274.879839c-25.023985 0.704-44.927974 20.351988-44.927973 44.351974 0 23.999986 19.903988 43.647974 44.927973 44.319974H520.031695c25.023985-0.672 44.959974-20.319988 44.959974-44.319974s-19.903988-43.647974-44.927974-44.351974z m0 266.014844h-274.879839c-25.023985 0.704-44.927974 20.351988-44.927973 44.351974 0 23.999986 19.903988 43.647974 44.927973 44.319974H520.031695c25.023985-0.672 44.959974-20.319988 44.959974-44.319974s-19.903988-43.647974-44.927974-44.351974zM777.310545 874.560088V555.712274c0-12.479993 7.199996-22.623987 16.12799-22.623986h51.03997c8.895995 0 16.127991 10.143994 16.127991 22.623986V874.560088c0 12.479993-7.231996 22.591987-16.127991 22.591986h-51.03997c-8.927995 0-16.127991-10.111994-16.12799-22.591986z m176.095896-315.711815h51.03997c8.895995 0 16.127991 9.407994 16.127991 21.023987V876.160087c0 11.615993-7.231996 20.991988-16.127991 20.991987h-51.03997c-8.895995 0-16.127991-9.375995-16.12799-20.991987V579.87226c0-11.615993 7.231996-21.023988 16.12799-21.023987z" /></svg>