<?xml version="1.0" standalone="no"?><!DOCTYPE svg PUBLIC "-//W3C//DTD SVG 1.1//EN" "http://www.w3.org/Graphics/SVG/1.1/DTD/svg11.dtd"><svg class="icon" width="200px" height="200.00px" viewBox="0 0 1024 1024" version="1.1" xmlns="http://www.w3.org/2000/svg"><path fill="#333333" d="M638.596 191.936q30.628 0 54.62 13.272t41.348 32.67 26.545 41.859 9.188 39.816v576.83q0 29.607-11.74 53.089t-30.629 39.816-42.369 25.524-46.963 9.188H135.274q-19.398 0-42.369-11.23t-42.88-29.607-33.18-42.37T3.573 892.3V323.637q0-21.44 10.21-44.41t26.544-42.37 37.775-32.16 44.92-12.76h515.574z m-60.235 638.086q26.544 0 45.432-18.377t18.887-44.921-18.887-45.432-45.432-18.887H195.509q-26.544 0-45.431 18.887t-18.888 45.432 18.888 44.921 45.431 18.377h382.852z m0-255.234q26.544 0 45.432-18.377t18.887-44.921-18.887-45.432-45.432-18.888H195.509q-26.544 0-45.431 18.888T131.19 511.49t18.888 44.92 45.431 18.378h382.852zM759.067 0q43.9 0 80.654 26.034t63.808 64.319 42.37 82.696 15.313 81.164v542.118q0 21.44-12.761 39.306t-31.139 30.628-39.816 20.419-39.817 7.657h-4.084v-609.5q-8.167-70.444-43.9-108.219t-94.947-49.005H196.53q1.021-2.042 1.021-7.146 0-20.42 12.252-41.859t32.16-38.795 44.41-28.587T335.378 0h423.689z" /></svg>