<?xml version="1.0" standalone="no"?><!DOCTYPE svg PUBLIC "-//W3C//DTD SVG 1.1//EN" "http://www.w3.org/Graphics/SVG/1.1/DTD/svg11.dtd"><svg class="icon" width="11px" height="11.00px" viewBox="0 0 1024 1024" version="1.1" xmlns="http://www.w3.org/2000/svg"><path fill="#889aa4" d="M377.559 489.63l67.034 66.925-134.025 133.787-67.014-66.838L377.559 489.63zM556.63 690.734h223.376v-89.437H556.631v89.437z m402.077-446.797v536.105c0 98.73-79.927 178.745-178.7 178.745H243.902c-98.6 0-178.612-80.014-178.612-178.745V243.937c0-98.73 80.013-178.723 178.612-178.723h536.105c98.773 0 178.7 79.991 178.7 178.723z m-89.263 44.675c0-74.015-60.119-133.981-134.113-133.981H288.579c-73.994 0-134.028 59.966-134.028 133.981v446.776c0 74.015 60.034 133.96 134.028 133.96h446.753c73.994 0 134.113-59.945 134.113-133.96V288.612z m-625.891 67.23L377.559 489.63l0.021-0.022 67.012 66.947 67.1-66.947-201.124-200.602-67.014 66.836z" /></svg>