<?xml version="1.0" standalone="no"?><!DOCTYPE svg PUBLIC "-//W3C//DTD SVG 1.1//EN" "http://www.w3.org/Graphics/SVG/1.1/DTD/svg11.dtd"><svg class="icon" width="200px" height="200.00px" viewBox="0 0 1024 1024" version="1.1" xmlns="http://www.w3.org/2000/svg"><path fill="#333333" d="M134.78 331.748l9.122-27.039h698.88v-85.597h-295.01L440.501 97.12H52.489L0 219.004V726.39l134.78-394.64z m0 0M826.58 577.214c28.647 0 56.264 4.678 82.057 13.24l79.31-232.57H190.467L27.274 835.81h540.692c0.018-142.764 115.724-258.596 258.614-258.596zM986.45 892.417c-0.343 0.108-0.687 0.343-0.921 0.451 0.234-0.108 0.578-0.216 0.92-0.451z m0 0M1022.754 827.249c0-6.16-0.235-12.445-1.138-18.605 0-0.451-0.109-0.92-0.235-1.372 0-0.235-0.108-0.452-0.235-0.687-1.932-7.983-7.423-14.612-13.817-19.398-4.335-3.306-9.357-4.679-14.721-5.816-1.933-0.344-3.775-1.03-5.708-1.716-0.108 0-0.578-0.235-0.92-0.344-0.452-0.234-1.03-0.451-1.247-0.56-1.373-0.686-2.854-1.372-4.227-2.167-1.246-0.686-2.51-1.481-3.775-2.276a18.192 18.192 0 0 1-1.824-1.246c-0.235-0.108-0.452-0.343-0.578-0.452-2.402-2.059-4.678-4.1-6.737-6.394-0.56-0.56-1.03-1.138-1.481-1.716l-0.578-0.686a62.785 62.785 0 0 1-2.511-3.648 76.47 76.47 0 0 1-2.51-4.335l-1.139-2.403s-0.108-0.216-0.234-0.343c-0.109-0.235-0.235-0.578-0.344-0.795-1.246-3.305-2.275-6.737-2.962-10.277l-0.343-2.041c0-0.343-0.108-0.578-0.108-0.921-0.235-1.824-0.235-3.54-0.235-5.365 0-1.716 0-3.413 0.235-5.02l0.108-1.03v-0.578l0.108-0.687c0-0.343 0.109-0.795 0.217-1.138 0.343-1.932 0.921-3.648 1.481-5.599 0.578-1.481 1.138-3.089 1.481-4.57 1.03-4.335 0.922-8.561 0.235-12.896-1.03-6.846-4.57-13.926-9.7-18.604-1.823-1.716-3.883-3.089-5.942-4.57-9.699-6.737-20.085-12.553-30.47-17.918-6.955-3.54-14.035-7.297-22.018-7.875-6.846-0.451-14.613 1.481-20.32 5.365-3.649 2.51-6.611 5.707-9.7 8.796-0.794 0.795-1.607 1.481-2.51 2.276-0.452 0.343-0.922 0.795-1.373 1.138-0.343 0.235-0.686 0.451-0.921 0.686-2.746 1.933-5.6 3.54-8.562 5.021-0.343 0.235-0.92 0.344-1.246 0.452a5.625 5.625 0 0 1 1.03-0.343c-0.795 0.235-1.482 0.578-2.168 0.92-1.608 0.579-3.197 1.03-4.786 1.482-1.482 0.452-3.09 0.795-4.679 1.138l-2.059 0.343c-0.343 0-0.56 0.108-0.903 0.108-3.432 0.344-6.972 0.344-10.386 0.109-0.578 0-1.137-0.109-1.715-0.109h-0.687c-0.108 0-0.235 0-0.343-0.108a40.331 40.331 0 0 1-4.913-1.03c-1.481-0.343-3.089-0.794-4.57-1.372l-2.294-0.795c-0.234-0.108-0.343-0.108-0.56-0.235a57.468 57.468 0 0 1-8.67-4.786c-0.686-0.452-1.246-0.921-1.932-1.373-0.235-0.108-0.343-0.235-0.452-0.343-1.137-1.03-2.402-2.06-3.54-3.089-1.138-1.03-2.167-2.167-3.197-3.197-4.57-4.57-9.7-7.875-15.985-9.7-6.159-1.823-13.456-2.058-19.633 0-2.62 0.922-5.13 2.042-7.64 3.306-11.073 5.13-21.675 11.416-31.953 18.026-6.629 4.335-13.004 8.67-16.545 16.094-3.54 7.297-4.913 15.172-3.305 23.174 0.686 3.648 2.041 7.062 2.619 10.728 0 0.235 0.108 0.452 0.108 0.795 0 0.795 0.235 1.481 0.235 2.168 0.109 1.932 0.235 3.757 0.235 5.707 0 1.716-0.108 3.432-0.343 5.022l-0.109 0.92c-0.108 0.796-0.234 1.608-0.451 2.403-0.687 3.432-1.716 6.61-2.962 9.934l-0.344 0.921c-0.343 0.795-0.794 1.608-1.137 2.403-0.922 1.716-1.825 3.305-2.854 4.913l-2.403 3.413c-0.234 0.235-0.343 0.452-0.578 0.687-0.56 0.686-1.137 1.372-1.715 1.932-2.168 2.276-4.679 4.227-6.954 6.394l0.451-0.451a3.391 3.391 0 0 1-0.795 0.56c-0.578 0.451-1.246 0.921-1.824 1.264a52.083 52.083 0 0 1-4.335 2.62c-1.373 0.686-2.619 1.372-3.992 2.04-0.108 0-0.343 0.109-0.451 0.109 0.108 0 0.235 0 0.343-0.109-0.795 0.235-1.607 0.578-2.402 0.921-3.54 1.265-7.297 1.933-10.837 3.432-7.75 3.089-14.613 8.778-18.713 16.094-3.992 7.297-4.226 15.407-4.57 23.39-0.343 11.759-0.451 23.625 0.687 35.15 0.235 2.51 0.451 5.129 1.138 7.64 2.294 8.218 8.11 15.298 15.172 19.85 4.335 2.854 9.121 3.775 14.034 4.913 2.168 0.578 4.913 1.138 6.846 2.402-0.109 0-2.403-1.03-0.921-0.343a4.26 4.26 0 0 0 1.03 0.451c0.685 0.344 1.372 0.578 1.932 0.922 1.373 0.686 2.745 1.48 4.118 2.275 1.246 0.795 2.51 1.608 3.649 2.403l0.578 0.343c0.56 0.451 1.03 0.795 1.48 1.264 2.403 2.06 4.57 4.335 6.63 6.846 0.108 0.235 0.234 0.343 0.343 0.451 0.343 0.578 0.794 1.03 1.138 1.608a69.325 69.325 0 0 1 5.13 8.905c0.108 0.343 0.234 0.56 0.342 0.903 0.344 0.794 0.578 1.607 0.922 2.51 1.137 3.197 1.932 6.503 2.51 9.934 0 0.235 0.109 0.344 0.109 0.56v0.344c0.108 0.794 0.108 1.716 0.234 2.51 0.109 1.825 0.109 3.54 0.109 5.365 0 1.59-0.235 3.197-0.343 4.786 0 0.235-0.109 0.452-0.109 0.687l-0.578 2.727-1.373 5.13c-1.715 6.05-2.167 11.975-0.794 18.26 1.48 6.395 5.021 13.005 10.15 17.232 6.052 4.913 12.897 9.013 19.634 13.005 9.248 5.364 18.604 10.837 28.647 14.72 11.18 4.335 24.312 1.138 33.433-6.285 2.854-2.276 4.787-5.473 7.64-7.875a20.88 20.88 0 0 1 1.716-1.482c0.109-0.108 0.343-0.234 0.452-0.343 1.264-0.92 2.51-1.716 3.775-2.619 1.373-0.794 2.619-1.607 3.992-2.294l2.059-1.03 0.686-0.342c3.197-1.03 6.16-2.168 9.356-2.963 1.03-0.234 2.168-0.451 3.197-0.686h0.578l1.247-0.108c0.92-0.109 1.824-0.109 2.745-0.109a31.631 31.631 0 0 1 4.895 0c1.138 0 2.402 0.235 3.648 0.343-0.234-0.108 0.109-0.108 0.56-0.108 0.235 0 0.452 0.108 0.795 0.108 0.108 0 0.343 0 0.452 0.109 0.794 0.108 1.607 0.235 2.402 0.451 1.716 0.344 3.432 0.795 5.13 1.373 1.372 0.452 2.727 0.921 3.991 1.373-0.108 0-0.234-0.109-0.343-0.235 0.235 0.108 0.452 0.235 0.795 0.343 0.108 0 0.235 0.109 0.235 0.109 0.794 0.343 1.59 0.794 2.402 1.138 2.854 1.372 5.473 3.088 8.11 4.912 0.108 0 0.235 0.109 0.343 0.235 0.108 0.109 0.235 0.235 0.343 0.235s0.109 0.108 0.235 0.108c0.452 0.344 0.903 0.795 1.373 1.138 0.795 0.687 1.716 1.481 2.402 2.276 1.138 1.265 2.168 2.51 3.305 3.775 4.335 4.913 11.18 8.218 17.467 9.465 5.707 1.138 11.975 1.373 17.466-0.687 8.778-3.197 17.123-7.875 25.215-12.553 7.297-4.226 14.72-8.561 21.457-13.583 5.257-3.883 8.562-8.904 10.838-14.829 1.372-3.431 1.932-6.845 2.294-10.494 0.343-3.305 0.108-6.972-0.922-10.042-0.451-1.481-1.137-2.854-1.715-4.335-0.795-1.933-1.138-3.992-1.482-6.16 0-0.343 0-0.577-0.108-0.92-0.108-0.795-0.108-1.717-0.235-2.511a44.298 44.298 0 0 1 0-5.365l0.109-2.51c0-0.344 0.108-0.795 0.234-1.138 0 0-0.108-0.235 0-0.578l0.109-0.687c0-0.234 0-0.343 0.108-0.578 0.235-1.03 0.343-2.059 0.687-3.088a33.15 33.15 0 0 1 1.372-4.895c0.235-0.795 0.578-1.608 0.795-2.51 0.108-0.344 0.235-0.687 0.452-1.139 1.48-3.088 3.088-6.159 4.913-9.013 0.451-0.686 0.92-1.372 1.372-1.932 0-0.109 0.109-0.235 0.109-0.235 0.108-0.109 0.234-0.235 0.234-0.343 0.109-0.109 0.109-0.235 0.235-0.344 0 0.109-0.108 0.109-0.108 0.235 1.03-1.138 2.059-2.402 3.088-3.414 1.03-1.137 2.168-2.167 3.306-3.197 0.56-0.578 1.138-1.03 1.716-1.48 0 0 0.108-0.109 0.235-0.109-0.344 0.235-0.578 0.343 0.234-0.235l0.109-0.108c0.108-0.109 0.235-0.235 0.343-0.235-0.108 0-0.108 0.108-0.235 0.235 2.402-1.824 5.021-3.414 7.64-4.787 1.373-0.686 2.728-1.246 3.992-1.932l-0.343 0.234c0.235-0.108 0.343-0.108 0.452-0.234l2.619-0.922c3.431-1.137 7.08-1.372 10.385-2.727 7.749-3.197 14.721-9.013 18.604-16.653 2.06-4.118 2.854-7.532 3.414-11.867 1.535-11.307 1.427-22.361 1.319-33.216zM826.58 915.464c-43.927 0-79.654-35.727-79.654-79.546 0-43.945 35.727-79.654 79.654-79.654 43.82 0 79.546 35.727 79.546 79.654-0.018 43.837-35.619 79.546-79.546 79.546z m0 0" /></svg>