<?xml version="1.0" standalone="no"?><!DOCTYPE svg PUBLIC "-//W3C//DTD SVG 1.1//EN" "http://www.w3.org/Graphics/SVG/1.1/DTD/svg11.dtd"><svg class="icon" width="200px" height="200.00px" viewBox="0 0 1024 1024" version="1.1" xmlns="http://www.w3.org/2000/svg"><path fill="#333333" d="M888.71 752.33H545.52V858.8h240.24c22.88 0 34.31 11.8 34.31 35.49 0 23.65-11.44 35.49-34.31 35.49h-549.1c-22.88 0-34.31-11.84-34.31-35.49 0-23.69 11.44-35.49 34.31-35.49h240.2V752.33H133.68c-37.88 0-68.63-31.8-68.63-70.98V168.99c0-39.22 30.74-70.98 68.63-70.98h755.03c37.92 0 68.63 31.76 68.63 70.98v512.35c-0.01 39.19-30.71 70.99-68.63 70.99z m-139.86-405.2c0-7.1-5.56-12.86-12.41-12.86H691.9c-2.03 0.04-4.02 0.61-5.8 1.62l-20.08-62.5c-6.45-35.57-30.62-52.69-60.35-52.69H417.15c-34.15 0-54.88 23.04-60.39 52.65l-20.12 62.75c-1.87-1.18-3.97-1.78-6.17-1.83h-44.54c-6.85 0.04-12.41 5.76-12.41 12.86v11.11c0 7.06 5.6 12.82 12.41 12.82l16.87 2.96c-5.68 11.6-8.52 24.42-8.4 37.4l-6.25 73.82c0 2.15 0.16 4.34 0.45 6.53-0.28 1.3-0.45 2.68-0.45 4.14v88.75c0 12.65 9.94 22.92 22.15 22.92h33.79c5.84 0 11.48-2.43 15.66-6.73 4.14-4.26 6.49-10.1 6.49-16.18v-28.51h290.33v28.51c0 12.65 9.9 22.92 22.15 22.92h33.75c5.88 0 11.52-2.43 15.66-6.73s6.49-10.1 6.49-16.18V495.9c0-1.46-0.16-2.84-0.41-4.14 0.24-2.23 0.41-4.38 0.41-6.53l-6.25-73.82c0-14.36-3.04-26.65-8.4-37.48l16.51-2.88c3.29 0 6.41-1.38 8.76-3.77 2.31-2.39 3.61-5.64 3.61-9.04v-11.11zM640.64 514.16c-18.54 0-33.5-15.53-33.5-34.64 0-19.14 14.97-34.64 33.5-34.64 18.5 0 33.46 15.49 33.46 34.64 0 19.1-14.97 34.64-33.46 34.64z m-20.69-140.71H402.43c-15.98 0-35.21-13.06-36.46-29.65l5.48-22.55 14.72-40.56 0.24-0.97c1.46-8.19 4.7-9.65 9.57-15.98h230.71c4.91 6.49 7.95 8.15 9.29 15.9l14.97 41.61 5.48 22.55c-1.23 16.59-20.46 29.65-36.48 29.65zM415.29 479.52c0 19.1-15.01 34.64-33.5 34.64-18.5 0-33.5-15.53-33.5-34.64 0-19.14 15.01-34.64 33.5-34.64 18.49 0 33.5 15.49 33.5 34.64z" /></svg>