<?xml version="1.0" standalone="no"?><!DOCTYPE svg PUBLIC "-//W3C//DTD SVG 1.1//EN" "http://www.w3.org/Graphics/SVG/1.1/DTD/svg11.dtd"><svg t="1603846764104" class="icon" viewBox="0 0 1024 1024" version="1.1" xmlns="http://www.w3.org/2000/svg" p-id="4158" xmlns:xlink="http://www.w3.org/1999/xlink" width="200" height="200"><defs><style type="text/css"></style></defs><path d="M153.6 51.2h204.8a102.4 102.4 0 0 1 102.4 102.4v204.8a102.4 102.4 0 0 1-102.4 102.4H153.6A102.4 102.4 0 0 1 51.2 358.4V153.6A102.4 102.4 0 0 1 153.6 51.2z" fill="#FF7A45" p-id="4159"></path><path d="M358.4 563.2a102.4 102.4 0 0 1 102.4 102.4v204.8a102.4 102.4 0 0 1-102.4 102.4H153.6a102.4 102.4 0 0 1-102.4-102.4v-204.8a102.4 102.4 0 0 1 102.4-102.4h204.8z" fill="#52C41A" p-id="4160"></path><path d="M870.4 51.2a102.4 102.4 0 0 1 102.4 102.4v204.8a102.4 102.4 0 0 1-102.4 102.4h-204.8a102.4 102.4 0 0 1-102.4-102.4V153.6A102.4 102.4 0 0 1 665.6 51.2h204.8z" fill="#FAAD14" p-id="4161"></path><path d="M870.4 563.2a102.4 102.4 0 0 1 102.4 102.4v204.8a102.4 102.4 0 0 1-102.4 102.4h-204.8a102.4 102.4 0 0 1-102.4-102.4v-204.8a102.4 102.4 0 0 1 102.4-102.4h204.8z" fill="#3293ED" p-id="4162"></path></svg>