<?xml version="1.0" standalone="no"?><!DOCTYPE svg PUBLIC "-//W3C//DTD SVG 1.1//EN" "http://www.w3.org/Graphics/SVG/1.1/DTD/svg11.dtd"><svg class="icon" width="200px" height="200.00px" viewBox="0 0 1024 1024" version="1.1" xmlns="http://www.w3.org/2000/svg"><path fill="#333333" d="M886.4 609.28c-37.545 52.907-78.505 104.107-122.88 151.893-3.412 3.414-6.825 5.12-11.945 5.12s-8.534-1.706-11.947-5.12c-44.373-47.786-85.333-98.986-122.88-151.893-61.44-88.747-136.533-218.453-136.533-334.507C481.92 122.88 603.095 0 751.575 0s271.36 122.88 271.36 274.773c0 116.054-73.387 245.76-136.534 334.507zM751.576 104.107c-90.454 0-165.548 75.093-165.548 167.253s73.387 167.253 165.547 167.253c90.453 0 165.546-75.093 165.546-167.253s-73.386-167.253-165.546-167.253zM488.747 757.76L80.855 711.68l58.026-204.8c3.414-11.947 13.654-20.48 25.6-20.48h303.787c13.653 39.253 32.427 76.8 52.907 114.347L488.747 757.76z m-54.613 264.533H27.947c-8.533 0-17.067-3.413-22.187-10.24-5.12-6.826-6.826-15.36-5.12-23.893L55.255 793.6l414.72 46.08-35.84 182.613zM584.32 703.147c17.067 23.893 34.134 46.08 51.2 69.973l-66.56-6.827 15.36-63.146z m349.867-20.48l35.84 128-122.88-13.654c25.6-30.72 49.493-61.44 71.68-93.866 6.827-6.827 11.947-13.654 15.36-20.48z m61.44 215.04l25.6 88.746c1.707 3.414 1.707 6.827 1.707 10.24 0 6.827-3.414 13.654-8.534 18.774-5.12 5.12-11.946 8.533-18.773 8.533H517.76l35.84-174.08 442.027 47.787z m0 0" /></svg>