<?xml version="1.0" standalone="no"?><!DOCTYPE svg PUBLIC "-//W3C//DTD SVG 1.1//EN" "http://www.w3.org/Graphics/SVG/1.1/DTD/svg11.dtd"><svg class="icon" width="200px" height="200.00px" viewBox="0 0 1024 1024" version="1.1" xmlns="http://www.w3.org/2000/svg"><path fill="#333333" d="M19.831 547.271C37.081 791.654 232.346 986.92 476.73 1004.17v-138.49h70.542v138.49c244.383-17.25 439.626-212.47 456.92-456.83H865.667v-70.485h138.502C986.965 232.391 791.677 37.08 547.27 19.831v139.731H476.73V19.832C232.346 37.08 37.08 232.345 19.83 476.728h139.731v70.542z m569.856-77.676l3.732 2.355-0.603 0.615A85.06 85.06 0 0 1 472.52 592.839l-0.626 0.615-2.412-3.812a85.208 85.208 0 0 1-15.508-24.69L265.296 265.296l299.588 188.677a85.22 85.22 0 0 1 24.803 15.622z m0 0" /></svg>