<?xml version="1.0" standalone="no"?><!DOCTYPE svg PUBLIC "-//W3C//DTD SVG 1.1//EN" "http://www.w3.org/Graphics/SVG/1.1/DTD/svg11.dtd"><svg class="icon" width="200px" height="199.42px" viewBox="0 0 1027 1024" version="1.1" xmlns="http://www.w3.org/2000/svg"><path fill="#333333" d="M234.77658 948.59h-74.24V605.696a352.768 352.768 0 0 1 353.207-352.402 352.768 352.768 0 0 1 353.134 352.402V948.59h-632.1zM539.27158 395.337L365.04458 681.618H504.38158l-34.89 214.675L643.71958 610.01H504.38158l34.889-214.674z m267.19-314.514c16.385 9.508 21.944 30.427 12.508 46.811l-62.61 108.617-59.173-34.157 62.61-108.617a34.23 34.23 0 0 1 46.52-12.654h0.146zM513.59858 0.439c20.48 0 37.01 15.36 37.01 34.523V157.99h-74.02V34.816c0-19.017 16.53-34.377 37.01-34.377zM220.95158 80.823a34.23 34.23 0 0 1 46.738 12.434l62.61 108.617-59.172 34.304-62.683-108.617a34.23 34.23 0 0 1 12.507-46.738zM6.71758 295.57a34.377 34.377 0 0 1 46.665-12.507l108.47 62.83-34.157 59.245L19.15158 342.235A34.158 34.158 0 0 1 6.71758 295.57z m1013.98 0a34.377 34.377 0 0 1-12.508 46.812l-108.471 62.683-34.158-59.319L974.03158 282.99a34.158 34.158 0 0 1 46.592 12.36l0.073 0.22zM39.48458 948.59H988.00158a37.157 37.157 0 1 1 0 74.167H39.48558a37.157 37.157 0 1 1 0-74.167z m0 0" /></svg>