<?xml version="1.0" standalone="no"?><!DOCTYPE svg PUBLIC "-//W3C//DTD SVG 1.1//EN" "http://www.w3.org/Graphics/SVG/1.1/DTD/svg11.dtd"><svg class="icon" width="200px" height="200.00px" viewBox="0 0 1024 1024" version="1.1" xmlns="http://www.w3.org/2000/svg"><path fill="#333333" d="M471.552 177.664c-184.32 0.512-333.312 149.504-333.824 333.824V944.64h-97.28c-22.016 0-39.424 17.408-39.424 39.424s17.408 39.424 39.424 39.424h444.416c22.016 0 39.424-17.92 39.424-39.424 0-22.016-17.92-39.424-39.424-39.424H217.088V511.488c0-140.8 114.176-254.976 254.976-254.976S727.04 370.688 727.04 511.488v79.872c0 22.016 17.92 39.424 39.424 39.424 22.016 0 39.424-17.92 39.424-39.424v-79.872c0-184.32-149.504-333.824-334.336-333.824z m383.488-7.168c-15.36-15.36-40.448-15.36-55.808 0l-47.616 47.616c-15.872 14.848-16.896 39.936-2.048 55.808s39.936 16.896 55.808 2.048l2.048-2.048 47.616-47.616c15.36-15.36 15.36-40.448 0-55.808zM136.192 273.92c15.872 14.848 40.96 13.824 55.808-2.048 14.336-15.36 14.336-38.912 0-53.76l-48.128-48.128c-15.872-14.848-40.96-13.824-55.808 2.048-14.336 15.36-14.336 38.912 0 53.76l48.128 48.128z m335.36-124.928c22.016 0 39.424-17.92 39.424-39.424V39.424C510.976 17.408 493.056 0 471.552 0c-22.016 0-39.424 17.92-39.424 39.424v70.144c0 22.016 17.408 39.424 39.424 39.424zM584.704 599.552l-89.088-0.512c-8.192 0-14.848-6.656-14.848-15.36v-2.56l15.872-112.64c1.024-8.192-4.608-15.872-12.8-16.896-6.144-1.024-11.776 2.048-14.848 7.168L347.136 669.696c-4.096 7.168-1.536 16.384 5.632 20.48 2.048 1.536 5.12 2.048 7.68 2.048h96.768c8.192 0 15.36 6.656 15.36 14.848v2.56l-16.384 98.304c-1.536 8.192 4.096 15.872 12.288 17.408 6.144 1.024 12.288-2.048 15.36-7.168L598.528 622.08c4.096-7.168 1.536-16.384-5.632-20.48-3.072-1.024-5.632-2.048-8.192-2.048z m187.904 163.84h210.944c22.016 0 39.424-17.92 39.424-39.424 0-22.016-17.92-39.424-39.424-39.424H772.608c-22.016 0-39.424 17.92-39.424 39.424 0 22.016 17.408 39.424 39.424 39.424z m210.944 49.664H772.608c-22.016 0-39.424 17.92-39.424 39.424 0 22.016 17.92 39.424 39.424 39.424h210.944c22.016 0 39.424-17.92 39.424-39.424s-17.92-38.912-39.424-39.424z m0 132.096H772.608c-22.016 0-39.424 17.92-39.424 39.424 0 22.016 17.92 39.424 39.424 39.424h210.944c22.016 0 39.424-17.92 39.424-39.424 0-22.016-17.92-39.424-39.424-39.424zM666.624 684.544h-22.528c-22.016 0-39.424 17.408-39.424 39.424s17.408 39.424 39.424 39.424h22.528c22.016 0 39.424-17.92 39.424-39.424 0-22.016-17.92-39.424-39.424-39.424z m0 128.512h-22.528c-22.016 0-39.424 17.408-39.424 39.424s17.408 39.424 39.424 39.424h22.528c22.016 0 39.424-17.408 39.424-39.424 0-21.504-17.92-38.912-39.424-39.424z m0 132.096h-22.528c-22.016 0-39.424 17.408-39.424 39.424S622.08 1024 644.096 1024h22.528c22.016 0 39.424-17.408 39.424-39.424s-17.92-39.424-39.424-39.424z" /></svg>