<?xml version="1.0" standalone="no"?><!DOCTYPE svg PUBLIC "-//W3C//DTD SVG 1.1//EN" "http://www.w3.org/Graphics/SVG/1.1/DTD/svg11.dtd"><svg class="icon" width="200px" height="200.00px" viewBox="0 0 1024 1024" version="1.1" xmlns="http://www.w3.org/2000/svg"><path fill="#333333" d="M813.81 367.75c-28.393-9.202-58.617-14.34-89.985-14.726-53.87-59.515-131.706-96.93-218.286-97.024-155.415 0.175-281.361 126.118-281.539 281.536V832h128V544c0-17.673 14.327-32 32-32 17.673 0 32 14.327 32 32v288h55.391a305.75 305.75 0 0 0 60.719 64H224c-35.346 0-64-28.654-64-64V537.536C160.212 346.79 314.789 192.212 505.537 192c131.13 0.164 245.779 70.638 308.274 175.75zM695.164 960c8.192 0.662 16.475 1 24.837 1 8.362 0 16.645-0.338 24.837-1H992c17.673 0 32 14.327 32 32 0 17.673-14.327 32-32 32H32c-17.673 0-32-14.327-32-32 0-17.673 14.327-32 32-32h663.163zM512 128c-17.673 0-32-14.327-32-32V32c0-17.673 14.327-32 32-32 17.673 0 32 14.327 32 32v64c0 17.673-14.327 32-32 32z m-319.816 91.13l-37.12-46.132c-11.067-13.753-8.89-33.874 4.864-44.94l0.032-0.026c13.79-11.068 33.939-8.874 45.024 4.902l37.12 46.132c11.067 13.753 8.89 33.874-4.864 44.94l-0.032 0.026c-13.79 11.068-33.939 8.874-45.024-4.902z m589.072 4.734c-13.392-11.52-14.91-31.715-3.391-45.107l0.006-0.007 40.882-47.5c11.528-13.394 31.73-14.91 45.127-3.386 13.392 11.52 14.91 31.715 3.391 45.107l-0.006 0.007-40.882 47.5c-11.528 13.394-31.73 14.91-45.127 3.386zM720 928c-150.221 0-272-121.779-272-272s121.779-272 272-272 272 121.779 272 272-121.779 272-272 272z m0-64c114.875 0 208-93.125 208-208s-93.125-208-208-208-208 93.125-208 208 93.125 208 208 208zM592 576c17.673 0 32 14.327 32 32v128c0 17.673-14.327 32-32 32-17.673 0-32-14.327-32-32V608c0-17.673 14.327-32 32-32z m256 64c17.673 0 32 14.327 32 32v64c0 17.673-14.327 32-32 32-17.673 0-32-14.327-32-32v-64c0-17.673 14.327-32 32-32zM720 512c17.673 0 32 14.327 32 32v192.078c0 17.673-14.327 32-32 32-17.673 0-32-14.327-32-32V544c0-17.673 14.327-32 32-32z" /></svg>