<?xml version="1.0" standalone="no"?><!DOCTYPE svg PUBLIC "-//W3C//DTD SVG 1.1//EN" "http://www.w3.org/Graphics/SVG/1.1/DTD/svg11.dtd"><svg class="icon" width="11px" height="11.00px" viewBox="0 0 1024 1024" version="1.1" xmlns="http://www.w3.org/2000/svg"><path fill="#889aa4" d="M224 352a127.84 127.84 0 0 0 118.496-80H896.16a32 32 0 0 0 0-64H350.4C342.432 144.96 289.216 96 224 96a128 128 0 0 0 0 256z m0-192a64 64 0 1 1-0.032 128.032A64 64 0 0 1 224 160z m672.512 480H352c-1.504 0-2.816 0.672-4.256 0.864A127.744 127.744 0 0 0 224 544a128 128 0 0 0 0 256 127.744 127.744 0 0 0 123.744-96.864c1.44 0.192 2.752 0.864 4.256 0.864h544.512a32 32 0 0 0 0-64zM224 736a64 64 0 1 1 0.032-128.032A64 64 0 0 1 224 736z m672.512-320H608a32 32 0 0 0 0 64h288.512a32 32 0 0 0 0-64z m0 416H608a32 32 0 0 0 0 64h288.512a32 32 0 0 0 0-64z" /></svg>