<?xml version="1.0" standalone="no"?><!DOCTYPE svg PUBLIC "-//W3C//DTD SVG 1.1//EN" "http://www.w3.org/Graphics/SVG/1.1/DTD/svg11.dtd"><svg class="icon" width="200px" height="200.00px" viewBox="0 0 1024 1024" version="1.1" xmlns="http://www.w3.org/2000/svg"><path fill="#333333" d="M812.46 754.517c10.78 5.39 16.168 14.821 17.515 26.948 0 10.779-5.39 21.558-14.82 28.294-9.432 6.736-21.558 6.736-30.99 1.347l-127.999-64.673c-10.779-5.39-17.514-16.168-17.514-28.294V572.625c0-17.516 14.82-32.336 32.335-32.336s32.337 14.82 32.337 32.336v126.65l109.135 55.242zM183.246 412.29c-9.432 0-18.864 2.694-25.6 9.431-5.39 5.39-9.432 14.82-9.432 22.906 0 9.43 2.694 17.515 9.431 24.252 6.737 6.736 14.821 9.431 25.6 9.431H323.37c9.432 0 18.864-2.695 25.6-9.431 6.737-6.737 9.432-14.82 9.432-24.252s-2.695-17.516-9.432-22.906c-6.736-6.737-16.168-9.43-25.6-9.43H183.246z m0-161.682c-12.127 0-22.906 6.736-29.643 17.515-6.737 9.432-6.737 22.906 0 32.336 6.737 10.78 16.168 16.17 29.642 16.17h408.248c9.431 0 17.516-2.696 24.252-9.433 6.737-5.39 9.432-14.82 9.432-22.904 0-9.432-2.695-17.516-9.432-24.253s-14.82-9.43-24.252-9.43H183.246z m688.496 635.95c48.505-48.505 72.757-107.79 74.105-177.85-1.348-74.104-25.6-133.389-74.105-180.546-47.158-47.157-106.441-72.756-179.198-75.451-72.757 2.695-132.04 26.946-179.198 74.104s-72.757 106.44-74.104 179.198c2.695 72.757 26.947 130.693 75.452 179.198 47.157 47.157 106.44 71.409 179.198 74.104 71.409-1.347 130.692-25.6 177.85-72.757z m45.81-402.859c59.284 59.284 90.273 134.736 92.968 223.66-2.695 88.927-32.337 164.379-92.969 223.662-59.282 59.283-134.734 90.272-223.66 92.967-74.104-1.347-137.43-22.905-191.324-63.325H91.626c-36.379 0-64.673-29.642-64.673-66.02V106.442c0-35.032 28.294-66.021 64.673-66.021h662.897c36.38 0 64.673 29.641 64.673 66.02v309.891c36.379 16.168 70.063 39.074 98.357 67.367z m0 0" /></svg>