<?xml version="1.0" standalone="no"?><!DOCTYPE svg PUBLIC "-//W3C//DTD SVG 1.1//EN" "http://www.w3.org/Graphics/SVG/1.1/DTD/svg11.dtd"><svg class="icon" width="200px" height="200.00px" viewBox="0 0 1024 1024" version="1.1" xmlns="http://www.w3.org/2000/svg"><path fill="#333333" d="M718.131 976.026a236.8 236.8 0 1 1 236.8-236.8c1.587 129.587-105.625 236.8-236.8 236.8zM660.89 84.634a77.21 77.21 0 0 0-54.221-24.423H465.92c-39.322 0-75.162 38.861-75.162 81.562v113.664H681.78v-115.2a76.8 76.8 0 0 0-20.89-55.603zM438.989 206.029v-64.256a32.307 32.307 0 0 1 0-4.455 31.488 31.488 0 0 1 33.587-29.03h140.595A29.184 29.184 0 0 1 640 135.27v70.759zM739.482 834.97a24.064 24.064 0 0 0-26.42-23.962 24.78 24.78 0 0 0-21.708 24.986v34.764a32.307 32.307 0 0 1 0 4.455 31.283 31.283 0 0 1-33.536 28.979H216.73a26.06 26.06 0 0 1-4.455 0 31.386 31.386 0 0 1-29.03-33.536v-396.34a49.869 49.869 0 0 1 26.368-46.08l217.549-172.8h218.726l25.958 39.015a128 128 0 0 1 16.282 39.987 23.5 23.5 0 0 0 22.835 18.535 23.296 23.296 0 0 0 22.733-28.672 189.44 189.44 0 0 0-26.06-60.109l-37.889-56.883H402.586L172.954 392.448a102.042 102.042 0 0 0-37.786 81.92v396.493a82.688 82.688 0 0 0 81.562 81.459h441.19a86.016 86.016 0 0 0 65.638-28.16 65.894 65.894 0 0 0 15.924-53.197zM715.52 774.349a141.926 141.926 0 0 1-99.174-40.448l-0.87-0.87c-43.111-46.593-49.562-119.04-16.129-180.225l0.512-0.921 100.967-166.349a18.278 18.278 0 0 1 30.72-0.666l4.198 6.196c2.867 4.3 71.066 106.035 97.587 158.72l0.563 1.28c23.143 53.76 30.72 129.843-18.534 182.22l-0.768 0.768a141.926 141.926 0 0 1-99.072 40.295z m-66.56-73.063a95.846 95.846 0 0 0 133.12 0c33.178-35.84 26.88-91.29 9.78-131.481-16.794-33.075-52.071-88.474-74.446-122.88l-77.926 128.358c-23.5 43.571-19.968 94.003 9.42 126.157zM453.222 231.27h51.2v44.698a25.6 25.6 0 0 1-25.6 25.6 25.6 25.6 0 0 1-25.6-25.6z m108.75 0h51.2v44.698a25.6 25.6 0 0 1-25.6 25.6 25.6 25.6 0 0 1-25.6-25.6zM279.04 769.434a23.04 23.04 0 0 1-23.04-23.04v-226.1a23.04 23.04 0 0 1 46.08 0v226.1a23.04 23.04 0 0 1-23.04 23.04z" /></svg>