<?xml version="1.0" standalone="no"?><!DOCTYPE svg PUBLIC "-//W3C//DTD SVG 1.1//EN" "http://www.w3.org/Graphics/SVG/1.1/DTD/svg11.dtd"><svg class="icon" width="200px" height="200.00px" viewBox="0 0 1024 1024" version="1.1" xmlns="http://www.w3.org/2000/svg"><path fill="#333333" d="M579.817 381.129c60.733 0 115.835 24.269 156.154 63.522 40.35-32.048 97.01-33.562 139.012-3.714 42.002 29.847 59.24 83.875 42.292 132.553 67.588 32.09 109.524 101.43 106.58 176.227-2.945 74.797-50.201 140.622-120.102 167.294-69.9 26.672-148.962 9.045-200.933-44.798-22.441 58.404-79.853 95.762-142.307 92.6-62.455-3.16-115.806-46.124-132.242-106.495-52.894 25.586-116.424 11.522-153.594-34.003l-6.016-8.004-246.39-17.93 226.551-82.605c11.703-52.149 54.685-91.448 107.644-98.422l-0.32-12.295a223.87 223.87 0 0 1 65.466-158.335 223.604 223.604 0 0 1 158.205-65.595zM13.63 820.537l126.267 87.472c4.961 5.392 4.961 13.69 0 19.082a10.235 10.235 0 0 1-13.375 1.473l-2.624-2.753L13.631 820.537z m179.513-209.523c7.35 7.952 7.35 20.224 0 28.176L7.104 767.9l162.49-154.965a15.035 15.035 0 0 1 23.551-1.921zM31.614 639.51l3.073 0.512c3.647 1.281 5.567 5.059 4.863 8.581l-1.088 2.561L0 755.606l21.887-109.949a10.24 10.24 0 0 1 9.728-6.083v-0.064z m273.654-177.377c12.547 0 22.719 10.178 22.719 22.732 0 12.555-10.172 22.733-22.72 22.733-12.547 0-22.718-10.178-22.718-22.733 0-12.554 10.171-22.732 22.719-22.732z m574.249-138.956c11.946 0 21.63 9.69 21.63 21.644 0 11.953-9.684 21.643-21.63 21.643-11.947 0-21.631-9.69-21.631-21.643 0-11.954 9.684-21.644 21.63-21.644z m-251.83-66.084c18.68 0 33.822 15.151 33.822 33.842 0 18.69-15.142 33.843-33.822 33.843-18.68 0-33.823-15.152-33.823-33.843 0-18.69 15.143-33.842 33.823-33.842zM393.584 195.49c23.01 0 41.663 18.664 41.663 41.687 0 23.023-18.653 41.687-41.663 41.687-23.01 0-41.662-18.664-41.662-41.687 0-23.023 18.653-41.687 41.662-41.687zM731.3 59.032c26.014-0.78 50.393 12.662 63.63 35.084a71.5 71.5 0 0 1 0 72.695c-13.237 22.421-37.616 35.863-63.63 35.083-38.595-1.156-69.284-32.796-69.284-71.43 0-38.636 30.689-70.275 69.284-71.432z" /></svg>