<?xml version="1.0" standalone="no"?><!DOCTYPE svg PUBLIC "-//W3C//DTD SVG 1.1//EN" "http://www.w3.org/Graphics/SVG/1.1/DTD/svg11.dtd"><svg class="icon" width="200px" height="200.00px" viewBox="0 0 1024 1024" version="1.1" xmlns="http://www.w3.org/2000/svg"><path fill="#333333" d="M474.752 661.547c-59.093 52.053-134.4 79.36-210.603 54.485-76.032-24.96-126.72-146.261-67.669-197.547 120.448-104.533 133.12 4.907 231.253-41.557 98.176-46.379 106.027 132.565 47.019 184.619m171.904 135.68c-65.408-26.198-79.872-114.774-60.416-187.734 19.499-73.173-40.064-174.08-67.712-230.826-27.563-56.918 36.907-184.832 105.387-204.416 111.189-31.872 55.168 155.605 59.818 280.746 4.779 125.099 171.35 206.592 169.6 283.179-1.749 76.587-141.354 85.376-206.677 59.093m240.768-194.133c-143.403-148.181-145.621-211.157-121.045-277.76 21.162-57.643 9.344-317.61-176-217.216-185.387 100.437-129.622 262.443-260.992 258.347C197.973 362.41 17.92 436.395 111.06 698.325c36.395 102.358 121.686 184.235 232.363 197.12 110.677 12.928 290.987-18.986 401.152 35.328 110.123 54.4 280.15-185.642 142.848-327.637m-105.43 410.965c-132.693-68.565-350.72-23.466-483.413-41.13-132.693-17.664-218.41-140.203-263.509-266.667-115.456-323.285 77.995-411.008 235.392-403.883 157.44 7.254 91.605-154.24 312.235-274.858C803.37-93.056 862.89 217.13 838.357 287.573 813.781 358.06 796.843 425.387 963.371 601.9c166.528 176.597-48.64 480.853-181.376 412.16" /></svg>