<?xml version="1.0" standalone="no"?><!DOCTYPE svg PUBLIC "-//W3C//DTD SVG 1.1//EN" "http://www.w3.org/Graphics/SVG/1.1/DTD/svg11.dtd"><svg class="icon" width="200px" height="187.55px" viewBox="0 0 1092 1024" version="1.1" xmlns="http://www.w3.org/2000/svg"><path fill="#333333" d="M1035.544 767.203L666.667 92.06c-46.213-79.988-199.97-79.988-246.214 0L51.257 778.711C-3.465 873.507 64.995 992 174.4 992h731.364c115.363 0 187.472-124.892 129.78-224.797zM543.925 846.95a56.542 56.542 0 1 1 56.542-56.532 56.492 56.492 0 0 1-56.542 56.532z m56.542-226.137a56.542 56.542 0 0 1-113.083 0V338.175a56.542 56.542 0 0 1 113.083 0z" /></svg>