<?xml version="1.0" standalone="no"?><!DOCTYPE svg PUBLIC "-//W3C//DTD SVG 1.1//EN" "http://www.w3.org/Graphics/SVG/1.1/DTD/svg11.dtd"><svg class="icon" width="11px" height="11.00px" viewBox="0 0 1024 1024" version="1.1" xmlns="http://www.w3.org/2000/svg"><path fill="#889aa4" d="M1024 439.466667v-25.6c0-12.8-12.8-25.6-25.6-25.6h-93.866667c-4.266667 0-8.533333 0-12.8 4.266666l-42.666666-132.266666c-12.8-72.533333-64-110.933333-128-110.933334H307.2c-72.533333 0-119.466667 46.933333-128 110.933334l-42.666667 132.266666c-4.266667-4.266667-8.533333-4.266667-17.066666-4.266666H25.6c-17.066667 0-25.6 12.8-25.6 25.6v21.333333c0 12.8 12.8 25.6 25.6 25.6l34.133333 8.533333c-8.533333 25.6-17.066667 51.2-17.066666 81.066667l-12.8 153.6v204.8c0 25.6 21.333333 46.933333 46.933333 46.933333h72.533333c25.6 0 46.933333-21.333333 46.933334-46.933333v-59.733333h627.2v59.733333c0 25.6 21.333333 46.933333 46.933333 46.933333h72.533333c25.6 0 46.933333-21.333333 46.933334-46.933333V725.333333v-8.533333-12.8l-12.8-153.6c0-29.866667-8.533333-55.466667-17.066667-76.8l34.133333-4.266667c17.066667-4.266667 29.866667-17.066667 29.866667-29.866666zM209.066667 358.4l29.866666-85.333333c4.266667-17.066667 12.8-21.333333 25.6-34.133334h499.2c8.533333 17.066667 12.8 17.066667 17.066667 34.133334l34.133333 85.333333 12.8 46.933333c-4.266667 34.133333-42.666667 59.733333-76.8 59.733334h-469.333333c-34.133333 0-76.8-25.6-76.8-59.733334l4.266667-46.933333z m93.866666 332.8c0 38.4-34.133333 72.533333-72.533333 72.533333-38.4 0-72.533333-34.133333-72.533333-72.533333 0-38.4 34.133333-72.533333 72.533333-72.533333 42.666667 0 72.533333 29.866667 72.533333 72.533333z m558.933334 0c0 38.4-34.133333 72.533333-72.533334 72.533333-38.4 0-72.533333-34.133333-72.533333-72.533333 0-38.4 34.133333-72.533333 72.533333-72.533333 42.666667 0 72.533333 29.866667 72.533334 72.533333z" /></svg>