<?xml version="1.0" standalone="no"?><!DOCTYPE svg PUBLIC "-//W3C//DTD SVG 1.1//EN" "http://www.w3.org/Graphics/SVG/1.1/DTD/svg11.dtd"><svg class="icon" width="200px" height="180.12px" viewBox="0 0 1137 1024" version="1.1" xmlns="http://www.w3.org/2000/svg"><path fill="#333333" d="M1080.889 1024H625.778a56.889 56.889 0 0 1-56.89-56.889V398.222a56.889 56.889 0 0 1 56.89-56.889h455.11a56.889 56.889 0 0 1 56.89 56.89V967.11a56.889 56.889 0 0 1-56.89 56.889zM683.292 768.683a38.855 38.855 0 1 0 0 77.71h342.472a38.855 38.855 0 0 0 0-77.71z m0-155.42a38.855 38.855 0 1 0 0 77.653h342.472a38.855 38.855 0 1 0 0-77.654z m0-155.421a38.855 38.855 0 0 0 0 77.71h342.472a38.855 38.855 0 0 0 0-77.71zM1080.889 227.556h-1024A56.889 56.889 0 0 1 0 170.666V56.89A56.889 56.889 0 0 1 56.889 0h1024a56.889 56.889 0 0 1 56.889 56.889v113.778a56.889 56.889 0 0 1-56.89 56.889zM120.092 56.889a56.889 56.889 0 0 0 0 113.778h12.63a56.889 56.889 0 0 0 0-113.778zM398.222 625.778H56.89A56.889 56.889 0 0 1 0 568.888V455.112a56.889 56.889 0 0 1 56.889-56.889h341.333a56.889 56.889 0 0 1 56.89 56.89v113.777a56.889 56.889 0 0 1-56.89 56.889zM113.778 455.11A56.889 56.889 0 1 0 170.667 512a56.889 56.889 0 0 0-56.89-56.889zM398.222 1024H56.89A56.889 56.889 0 0 1 0 967.111V853.333a56.889 56.889 0 0 1 56.889-56.889h341.333a56.889 56.889 0 0 1 56.89 56.89V967.11a56.889 56.889 0 0 1-56.89 56.889zM113.778 853.333a56.889 56.889 0 1 0 56.889 56.89 56.889 56.889 0 0 0-56.89-56.89z" /></svg>