<?xml version="1.0" standalone="no"?><!DOCTYPE svg PUBLIC "-//W3C//DTD SVG 1.1//EN" "http://www.w3.org/Graphics/SVG/1.1/DTD/svg11.dtd"><svg class="icon" width="200px" height="187.03px" viewBox="0 0 1095 1024" version="1.1" xmlns="http://www.w3.org/2000/svg"><path fill="#333333" d="M787.768 0H518.774c-32.664 0-57.64 22.911-57.64 52.87v810.69h-76.86V52.87c0-28.195-24.976-52.87-57.64-52.87H57.64C24.976 0 0 22.911 0 52.87V969.3c0 28.196 24.976 52.871 57.64 52.871h268.994c32.664 0 57.64-22.911 57.64-52.87v-35.249h76.855v35.249c0 28.195 24.975 52.87 57.64 52.87h268.994c32.664 0 57.64-22.911 57.64-52.87V52.87C845.407 22.91 820.432 0 787.767 0zM172.925 934.058H96.07V863.56h76.855v70.497z m115.284-775.442H96.07V88.119h192.14v70.497z m345.844 775.442h-76.855V863.56h76.855v70.497z m115.285-775.442h-192.14V88.119h192.14v70.497z m290.132 863.56c-30.742 0-55.718-22.91-55.718-51.106V51.112c0-28.195 24.976-51.107 55.718-51.107 30.741-0.005 55.717 22.906 55.717 51.102v919.957c0 28.201-24.976 51.113-55.717 51.113z" /></svg>