<?xml version="1.0" standalone="no"?><!DOCTYPE svg PUBLIC "-//W3C//DTD SVG 1.1//EN" "http://www.w3.org/Graphics/SVG/1.1/DTD/svg11.dtd"><svg class="icon" width="200px" height="200.00px" viewBox="0 0 1024 1024" version="1.1" xmlns="http://www.w3.org/2000/svg"><path fill="#333333" d="M460.5143 376.724c-60.757 0-110.011 49.255-110.011 110.014 0 60.756 49.257 110.008 110.013 110.008 60.508 0 109.653-48.862 110.006-109.37 0.356-60.757-48.614-110.296-109.371-110.649l-0.637-0.003zM275.6693 835.958C146.1233 767.885 64.8843 633.715 64.6023 487.375v-27.504a280.148 280.148 0 0 1 222.58 51.806 175.258 175.258 0 0 0 121.525 143.27 323.82 323.82 0 0 1 10.872 50.528c17.27 35.177 63.96 35.177 68.437-9.593a343.798 343.798 0 0 1 14.712-38.377c69.453-17.157 121.413-74.946 131.116-145.828a280.146 280.146 0 0 1 220.661-51.166v27.502a468.244 468.244 0 0 1-22.384 147.748c-19.828 51.806 53.724 44.131 63.959 10.872a541.087 541.087 0 0 0 23.664-159.26c0.29-253.978-205.37-460.104-459.348-460.39C206.4133 26.692 0.2903 232.35 0.0003 486.33-0.2097 671.045 110.1213 837.96 280.1463 910.149c30.7 13.432 60.122-40.934-4.477-74.191z m184.845-225.78c-67.822 0-122.804-54.98-122.804-122.803s54.982-122.803 122.804-122.803 122.803 54.981 122.803 122.803c-0.003 67.822-54.981 122.804-122.803 122.804z m0-518.077c156.037 0.184 297.356 92.147 360.734 234.734-15.99 44.132-63.959 105.534-205.952 79.949-44.293-85.66-149.642-119.199-235.302-74.903a174.623 174.623 0 0 0-74.903 74.903c-141.99 25.585-191.88-35.817-205.952-79.949 63.467-142.8 205.107-234.8 361.375-234.734z m472.663 621.691H805.2563c-50.16 0-90.826 40.666-90.826 90.824h39.017c0-28.78 23.024-39.015 51.806-39.015h127.921c28.61 0 51.807 23.196 51.807 51.807v51.807c0 28.613-23.199 51.806-51.807 51.806h-127.92c-28.783 0-51.807-10.232-51.807-39.014H714.4303c0 50.16 40.665 90.824 90.826 90.824h127.92c50.161 0 90.824-40.663 90.824-90.824v-77.391c0-50.158-40.663-90.824-90.823-90.824zM566.6843 936.374l-127.918 7.675c-28.387 1.451-52.649-20.235-54.366-48.61v-51.806c-1.818-28.555 19.858-53.177 48.412-54.994l0.197-0.013 127.92-7.675c28.78 0 52.447 7.037 54.365 35.817h39.014c-3.087-49.943-45.985-87.98-95.941-85.066l-127.918 7.675c-50.158 0.35-90.54 41.292-90.191 91.453l0.007 0.65 4.478 77.39c3.087 49.945 45.988 87.979 95.94 85.065l127.921-7.675c49.944-3.087 87.98-45.985 85.067-95.94h-39.015c3.198 32.621-19.19 44.134-47.972 46.054z m-134.952-71.637c1.026 14.239 13.248 25.04 27.502 24.305l454.755-31.34c14.308 2.256 27.733-7.516 29.988-21.818 2.256-14.308-7.516-27.733-21.821-29.988a26.299 26.299 0 0 0-8.164 0l-454.756 31.34c-14.464-0.725-26.777 10.413-27.502 24.88a24.202 24.202 0 0 0-0.002 2.621z" /></svg>