<?xml version="1.0" standalone="no"?><!DOCTYPE svg PUBLIC "-//W3C//DTD SVG 1.1//EN" "http://www.w3.org/Graphics/SVG/1.1/DTD/svg11.dtd"><svg class="icon" width="200px" height="200.00px" viewBox="0 0 1024 1024" version="1.1" xmlns="http://www.w3.org/2000/svg"><path fill="#333333" d="M256.000002 63.999999v64a63.999999 63.999999 0 0 0 56.512 63.551999L320.000002 191.999998h383.999996a63.999999 63.999999 0 0 0 63.552-56.511999L767.999998 127.999999V63.999999h63.999999a127.999999 127.999999 0 0 1 127.615999 118.399999L959.999996 191.999998v703.999993a127.999999 127.999999 0 0 1-118.399999 127.679999l-9.6 0.32H192.000003A127.999999 127.999999 0 0 1 64.320004 905.599991L64.000004 895.999991V191.999998c0-67.455999 52.223999-122.751999 118.399999-127.679999L192.000003 63.999999h63.999999z m327.679997 266.239998l-41.727999 56.063999a193.471998 193.471998 0 0 0-59.84 0L440.320001 330.239997a255.743998 255.743998 0 0 0-105.279999 60.863999l27.711999 64.256a191.807998 191.807998 0 0 0-29.951999 51.775999l-69.504 8.128a256.639997 256.639997 0 0 0 0 121.599999l69.504 8.128a192.257998 192.257998 0 0 0 29.951999 51.775999l-27.711999 64.256c29.312 28.032 65.279999 49.216 105.279999 60.799999l41.855999-56.063999a193.471998 193.471998 0 0 0 59.776 0l41.855999 56.127999a255.743998 255.743998 0 0 0 105.279999-60.863999l-27.711999-64.256a192.257998 192.257998 0 0 0 29.951999-51.775999l69.504-8.128a256.639997 256.639997 0 0 0 0-121.599999l-69.632-8.192a191.807998 191.807998 0 0 0-29.951999-51.775999l27.711999-64.256a255.743998 255.743998 0 0 0-105.279999-60.799999zM512 479.999995a95.999999 95.999999 0 1 1 0 191.999998 95.999999 95.999999 0 0 1 0-191.999998zM639.999999 0a63.999999 63.999999 0 0 1 7.488 127.551999L639.999999 127.999999H384.000001A63.999999 63.999999 0 0 1 376.512001 0.448L384.000001 0h255.999998z" /></svg>