<?xml version="1.0" standalone="no"?><!DOCTYPE svg PUBLIC "-//W3C//DTD SVG 1.1//EN" "http://www.w3.org/Graphics/SVG/1.1/DTD/svg11.dtd"><svg class="icon" width="200px" height="200.00px" viewBox="0 0 1024 1024" version="1.1" xmlns="http://www.w3.org/2000/svg"><path fill="#333333" d="M895.829 175.724c0-50.812-60.625-94.721-89.58-94.721h-31.902c0-18.694-15.268-33.848-34.102-33.848H624.461c-18.834 0-34.101 15.154-34.101 33.848H428.538c0-18.694-15.268-33.848-34.1-33.848H278.651c-18.834 0-34.1 15.154-34.1 33.848h-62.366c-27.808 0-102.22 27.167-102.22 107.277v52.383H895.83l-0.002-64.939z m-576.115 33.669c-27.033 0-48.958-21.435-48.958-47.9 0-22.708 16.165-41.714 37.841-46.642h22.238c21.682 4.928 37.838 23.934 37.838 46.642 0 26.465-21.913 47.9-48.96 47.9z m130.55 0c-27.042 0-48.957-21.435-48.957-47.9 0-26.452 21.915-47.898 48.957-47.898 27.022 0 48.961 21.447 48.961 47.898 0.001 26.465-21.939 47.9-48.961 47.9z m130.543 0c-27.02 0-48.934-21.435-48.934-47.9 0-26.452 21.913-47.898 48.934-47.898 27.02 0 48.957 21.447 48.957 47.898 0 26.465-21.94 47.9-48.957 47.9z m128.504 0c-27.02 0-48.933-21.435-48.933-47.9 0-22.708 16.155-41.714 37.822-46.642h22.232c21.683 4.928 37.837 23.934 37.837 46.642 0 26.465-21.912 47.9-48.958 47.9zM777.333 679.617c-22.845-6.481-46.489 7.727-52.791 31.759-6.296 24.004 7.136 48.73 29.982 55.21 22.875 6.49 46.521-7.72 52.816-31.723 6.304-24.035-7.134-48.759-30.007-55.246zM533.023 806.029H218.707c-40.932 0-82.874-14.155-82.874-70.328V368.983c0-17.964 21.272-32.522 35.814-32.522h640.686c14.555 0 32.025 14.56 32.025 32.522v108.983c19.254-7.986 43.707-7.41 54.286 3.109l0.382-192.76-819.062 0.697V762.12c0 74.78 40.621 100.336 107.573 100.336l350.061 0.463c-0.715-7.72-19.177-8.98-4.575-56.89zM950.61 729.326l-21.59-6.125c0.055-14.352-1.48-28.474-4.716-42.082l24.78-14.91c16.51-9.903 22.291-31.942 12.909-49.219l-8.475-15.593c-9.382-17.276-30.345-23.223-46.862-13.293l-24.301 14.612c-9.793-10.443-20.911-19.584-33.237-27.147l6.129-23.366c5.044-19.236-5.705-39.01-23.988-44.197l-16.571-4.7c-18.284-5.186-37.196 6.175-42.241 25.41l-6.129 23.367c-14.314 0.006-28.354 2.012-41.889 5.838L710.627 532.5c-9.383-17.277-30.316-23.215-46.834-13.285l-14.942 8.951c-16.49 9.939-22.27 31.977-12.91 49.22l14.07 25.929c-9.428 10.016-17.677 21.363-24.604 33.766l-21.595-6.126c-18.281-5.186-37.202 6.206-42.24 25.413l-4.568 17.416c-5.03 19.178 5.71 38.984 23.99 44.169l21.879 6.205a176.589 176.589 0 0 0 5.158 42.489l-25.797 15.522c-16.482 9.909-22.261 31.948-12.901 49.19l8.495 15.63c9.383 17.276 30.316 23.214 46.834 13.284l25.963-15.569a162.997 162.997 0 0 0 32.147 25.94l-5.84 22.267c-5.037 19.207 5.703 39.012 23.986 44.198l16.571 4.701c18.284 5.186 37.205-6.206 42.243-25.412l5.84-22.268c13.794-0.026 27.325-1.838 40.385-5.364l14.738 27.114c9.381 17.276 30.345 23.222 46.86 13.292l14.923-8.986c16.51-9.904 22.291-31.943 12.9-49.19l-14.617-26.987c9.615-10.027 18.076-21.374 25.187-33.881l21.848 6.197c18.312 5.194 37.235-6.196 42.265-25.376l4.568-17.415c5.034-19.211-5.706-39.014-24.02-44.208z m-89.644 21.896c-13.855 52.828-67.825 83.572-120.531 68.622-52.708-14.95-84.19-69.935-70.336-122.762 13.855-52.83 67.823-83.573 120.529-68.623 52.707 14.95 84.193 69.934 70.338 122.763zM316.827 418.832h342.14v45.432h-342.14v-45.432z" /></svg>