<?xml version="1.0" standalone="no"?><!DOCTYPE svg PUBLIC "-//W3C//DTD SVG 1.1//EN" "http://www.w3.org/Graphics/SVG/1.1/DTD/svg11.dtd"><svg class="icon" width="200px" height="200.00px" viewBox="0 0 1024 1024" version="1.1" xmlns="http://www.w3.org/2000/svg"><path fill="#333333" d="M938.791887 629.389834H561.024987V461.559878a48.543987 48.543987 0 0 0-48.723987-48.723987 49.024987 49.024987 0 0 0-49.326987 48.724987v167.829956H85.208113a60.574984 60.574984 0 0 0-60.754984 60.754984v273.097928A60.574984 60.574984 0 0 0 85.208113 1023.99973h853.583774a60.574984 60.574984 0 0 0 60.754984-60.755984V690.145818a61.476984 61.476984 0 0 0-18.045995-43.310989 58.529985 58.529985 0 0 0-42.709989-17.444995zM174.837089 875.419769a49.265987 49.265987 0 0 1-45.114988-30.076992 47.219988 47.219988 0 0 1 10.827997-52.935986 48.603987 48.603987 0 1 1 34.286991 83.012978z m147.376961 0a49.265987 49.265987 0 0 1-45.114988-30.076992 47.219988 47.219988 0 0 1 10.827997-52.935986 48.483987 48.483987 0 0 1 82.891978 34.287991 48.122987 48.122987 0 0 1-48.724987 48.724987zM853.37291 306.483919L712.011947 194.777949a79.944979 79.944979 0 0 0-110.322971 11.188997l42.107989 33.745991a26.647993 26.647993 0 0 1 34.768991-2.045l141.601963 112.006971a27.189993 27.189993 0 0 1 10.105997 18.045995 28.031993 28.031993 0 0 1-5.112999 20.271995l-62.439983 82.349978a25.745993 25.745993 0 0 1-18.045995 10.346997 26.587993 26.587993 0 0 1-19.729995-5.172998L583.582981 363.749904a26.707993 26.707993 0 0 1-10.105997-18.467995 25.083993 25.083993 0 0 1 1.864999-13.052997l-43.009988-33.986991a83.493978 83.493978 0 0 0 18.947995 108.637972l141.421962 111.70597a79.402979 79.402979 0 0 0 111.224971-13.113996l1.082-1.323 62.559983-82.289978a84.214978 84.214978 0 0 0-14.135996-115.37597m-424.565888-54.679985a26.286993 26.286993 0 0 1-24.602994 20.512994l-178.475953 7.999998a25.504993 25.504993 0 0 1-18.948995-7.217998 28.271993 28.271993 0 0 1-8.721997-19.069995l-4.451999-104.004973a27.429993 27.429993 0 0 1 25.685993-28.332992l178.596953-7.999998a25.745993 25.745993 0 0 1 18.948995 7.398998 30.076992 30.076992 0 0 1 8.059998 14.075996l54.138986-2.044999a81.628978 81.628978 0 0 0-83.312978-74.53098L216.825078 66.949982a81.749978 81.749978 0 0 0-77.05698 85.358978l4.449999 103.945972a81.387979 81.387979 0 0 0 83.433978 78.80098l179.258953-7.759998a81.809978 81.809978 0 0 0 76.816979-78.19998l-54.799985 2.587zM470.253011 181.724952a134.804964 134.804964 0 0 1 31.399992-8.421998 99.072974 99.072974 0 0 0-10.947997-9.142997l-193.574949 8.661997a26.184993 26.184993 0 0 0 2.044999 52.333987l192.492949-8.721998c8.300998-4.872999 16.180996-9.443998 24.060994-14.617996-14.796996-5.112999-30.076992-7.759998-44.934988-14.075997-2.164999-1.263-2.645999-4.991999-0.36-6.014998m105.449972 98.531974c-7.399998-0.602-14.557996-1.865-22.136994-2.947999l163.979957 119.525968a24.361994 24.361994 0 0 0 35.12999-6.014998 25.625993 25.625993 0 0 0-6.015998-36.091991L582.319981 233.697938c0.842 4.631999 1.564 8.842998 1.985 13.714997a4.029999 4.029999 0 0 1-4.691999 3.187999c-8.541998-3.187999-16.301996-9.202998-25.204993-12.872997 7.699998 12.872997 18.046995 24.422994 25.805993 37.234991 0.963 2.406999-1.624 5.233999-4.329999 5.353998m90.049976-157.482958l-38.679989-22.496994-25.022994 45.355988 4.149999 21.173994 59.552984-44.032988z m-109.900971-18.646995L535.639994 0l-48.783987 10.045997 46.317987 105.989972 22.858994-11.849996z" /></svg>