<?xml version="1.0" standalone="no"?><!DOCTYPE svg PUBLIC "-//W3C//DTD SVG 1.1//EN" "http://www.w3.org/Graphics/SVG/1.1/DTD/svg11.dtd"><svg class="icon" width="200px" height="175.04px" viewBox="0 0 1170 1024" version="1.1" xmlns="http://www.w3.org/2000/svg"><path fill="#333333" d="M1149.147 548.571L898.853 982.162a73.143 73.143 0 0 1-63.342 36.572H334.775a73.143 73.143 0 0 1-63.342-36.572L21.211 548.572a73.143 73.143 0 0 1 0-73.143L271.36 41.838a73.143 73.143 0 0 1 63.342-36.572h500.736a73.143 73.143 0 0 1 63.341 36.572l250.295 433.59a73.143 73.143 0 0 1 0 73.143z m-814.153-18.505h-51.931a36.571 36.571 0 1 0 0 73.143h73.143a36.571 36.571 0 0 0 33.353-21.504l22.308-38.692 37.084 190.902a36.571 36.571 0 0 0 34.596 29.55 36.571 36.571 0 0 0 37.596-27.721l66.121-264.923 65.829 338.432a36.571 36.571 0 0 0 69.485 9.07l94.647-212.773h83.968a36.571 36.571 0 1 0 0-73.143H791.48a36.571 36.571 0 0 0-36.352 32.914L702.903 682.57l-74.46-383.415a36.571 36.571 0 0 0-6.802-19.383 36.571 36.571 0 0 0-66.706 18.506l-65.17 261.485L465.7 436.151a36.571 36.571 0 0 0-14.995-25.966 36.498 36.498 0 0 0-55.076 14.921l-60.709 104.96z" /></svg>