<?xml version="1.0" standalone="no"?><!DOCTYPE svg PUBLIC "-//W3C//DTD SVG 1.1//EN" "http://www.w3.org/Graphics/SVG/1.1/DTD/svg11.dtd"><svg class="icon" width="200px" height="200.00px" viewBox="0 0 1024 1024" version="1.1" xmlns="http://www.w3.org/2000/svg"><path fill="#333333" d="M70.94 841.045l0.74-220.729 258.446-235.463v455.453l-259.186 0.74z m665.316-450.218l81.351-76.573 140.174 111.9V841.33H736.256V390.827z m-332.345 450.56V461.369L532.366 571.05l129.991-109.682v379.904H403.911zM70.144 906.809h887.694v97.166H70.201V906.81z m0.74-375.182V408.462l185.344-177.948 71.68-68.836L532.82 357.035l209.807-195.698-64.797-56.15 279.04-85.105-61.497 273.75-77.369-67.13-286.037 266.81-36.693-35.044L327.68 298.61 70.94 531.627z" /></svg>