<?xml version="1.0" standalone="no"?><!DOCTYPE svg PUBLIC "-//W3C//DTD SVG 1.1//EN" "http://www.w3.org/Graphics/SVG/1.1/DTD/svg11.dtd"><svg class="icon" width="200px" height="200.00px" viewBox="0 0 1024 1024" version="1.1" xmlns="http://www.w3.org/2000/svg"><path fill="#333333" d="M564.48 21.504H844.8v70.144H564.48zM614.4 231.68L263.168 399.872c-48.896 14.08-83.968 41.984-83.968 84.224v435.2a80.896 80.896 0 0 0 83.968 84.224H768a76.8 76.8 0 0 0 76.8-76.8V161.792H614.4z m70.144 41.984V231.68h90.88v693.76c0 6.912 0 6.912-6.912 6.912H263.168a6.656 6.656 0 0 1-6.912-6.912V484.096a51.2 51.2 0 0 1 35.072-21.248l350.208-167.936z m0 0M494.592 862.208a142.08 142.08 0 0 0 140.032-146.944v-7.168c0-20.992-6.912-83.968-112.128-252.16l-27.904-49.152-28.16 56.064c-41.984 76.8-112.128 210.176-112.128 252.416v6.912a140.544 140.544 0 0 0 140.288 140.032z m-70.144-153.6c0-20.992 35.072-90.88 70.144-161.024a898.816 898.816 0 0 1 69.888 153.6v20.992a70.144 70.144 0 0 1-69.888 71.424 71.936 71.936 0 0 1-70.144-76.8z m0 0" /></svg>