<?xml version="1.0" standalone="no"?><!DOCTYPE svg PUBLIC "-//W3C//DTD SVG 1.1//EN" "http://www.w3.org/Graphics/SVG/1.1/DTD/svg11.dtd"><svg class="icon" width="200px" height="200.00px" viewBox="0 0 1024 1024" version="1.1" xmlns="http://www.w3.org/2000/svg"><path fill="#333333" d="M944.356 238.933L534.756 5.69C529.066 0 523.378 0 512 0s-17.067 0-22.756 5.689l-409.6 233.244C68.267 250.311 56.89 261.69 56.89 278.756v466.488c0 17.067 11.378 34.134 22.755 45.512L489.244 1024H512c11.378 0 17.067 0 22.756-5.689l403.91-233.244c17.067-5.69 22.756-22.756 22.756-39.823V278.756c5.69-17.067-5.689-28.445-17.066-39.823zM512 762.311c-136.533 0-250.311-108.089-250.311-244.622S375.467 273.067 512 273.067c136.533 0 250.311 108.089 250.311 244.622 0 130.844-113.778 244.622-250.311 244.622zM512 312.889c-113.778 0-204.8 91.022-204.8 199.111 0 113.778 91.022 199.111 204.8 199.111S716.8 620.09 716.8 512c-5.689-108.089-96.711-199.111-204.8-199.111z m0 256c-34.133 0-56.889-28.445-56.889-56.889 0-34.133 28.445-56.889 56.889-56.889 34.133 0 56.889 28.445 56.889 56.889 0 34.133-22.756 56.889-56.889 56.889z" /></svg>